<?xml version="1.0" standalone="no"?>
<!DOCTYPE svg PUBLIC "-//W3C//DTD SVG 20010904//EN"
 "http://www.w3.org/TR/2001/REC-SVG-20010904/DTD/svg10.dtd">
<svg version="1.0" xmlns="http://www.w3.org/2000/svg"
 width="202.000000pt" height="117.000000pt" viewBox="0 0 202.000000 117.000000"
 preserveAspectRatio="xMidYMid meet">
<metadata>
Created by potrace 1.15, written by Peter Selinger 2001-2017
</metadata>
<g transform="translate(0.000000,117.000000) scale(0.100000,-0.100000)"
fill="#000000" stroke="none">
<path d="M713 1014 l-28 -26 33 22 c29 20 39 30 28 30 -3 0 -18 -12 -33 -26z"/>
<path d="M907 1029 c-44 -10 -93 -34 -102 -50 -4 -6 6 -4 23 5 51 26 203 48
253 37 61 -14 82 -12 34 4 -46 15 -152 17 -208 4z"/>
<path d="M1260 1016 c0 -2 7 -7 16 -10 8 -3 12 -2 9 4 -6 10 -25 14 -25 6z"/>
<path d="M1493 989 c-35 -22 -46 -37 -15 -20 22 13 58 40 52 41 -3 0 -20 -10
-37 -21z"/>
<path d="M1365 959 c-47 -39 -65 -59 -50 -59 10 0 115 84 115 92 0 15 -15 7
-65 -33z"/>
<path d="M620 982 c0 -6 5 -14 10 -17 6 -4 8 -10 5 -15 -4 -7 40 -43 55 -45 3
0 15 -6 28 -13 39 -22 24 5 -25 44 -71 57 -73 58 -73 46z"/>
<path d="M930 970 c-14 -4 12 -6 60 -3 47 3 87 7 89 9 8 7 -124 2 -149 -6z"/>
<path d="M1246 958 c50 -37 60 -41 24 -9 -19 17 -38 31 -43 31 -6 0 3 -10 19
-22z"/>
<path d="M578 949 c18 -12 35 -19 38 -16 3 3 -8 13 -25 21 -43 23 -52 19 -13
-5z"/>
<path d="M1120 955 c46 -18 64 -17 25 0 -16 8 -37 14 -45 14 -8 0 1 -7 20 -14z"/>
<path d="M1510 929 c-71 -39 -90 -59 -25 -26 47 24 96 56 85 57 -3 0 -30 -14
-60 -31z"/>
<path d="M390 936 c0 -2 20 -11 45 -19 53 -19 60 -12 10 9 -34 14 -55 18 -55
10z"/>
<path d="M557 929 c7 -7 15 -10 18 -7 3 3 -2 9 -12 12 -14 6 -15 5 -6 -5z"/>
<path d="M1677 906 c-64 -27 -79 -36 -55 -36 18 0 118 39 133 52 17 15 -20 8
-78 -16z"/>
<path d="M912 893 c-50 -18 -140 -97 -167 -147 l-19 -36 -16 42 c-42 114 -146
110 -340 -12 -55 -35 -70 -40 -100 -35 -19 4 -42 13 -50 20 -16 14 -122 25
-113 13 2 -5 12 -8 21 -9 14 0 13 -2 -3 -9 -18 -8 -18 -9 5 -10 24 -2 23 -3
-5 -10 -25 -6 -26 -8 -7 -9 13 0 20 -5 17 -11 -3 -5 2 -10 12 -11 13 -1 11 -3
-7 -9 -25 -8 -25 -8 5 -10 l30 -2 -30 -8 c-21 -5 -24 -8 -10 -10 l20 -1 -20
-9 c-17 -7 -16 -9 10 -10 30 -2 30 -2 5 -10 l-25 -8 25 -2 c23 -1 23 -2 5 -10
l-20 -9 20 -1 c14 -2 11 -5 -10 -10 l-30 -8 28 -1 c30 -1 39 -31 10 -32 -15 0
-15 -2 2 -9 17 -7 16 -9 -10 -10 l-30 -2 30 -8 c28 -7 29 -8 5 -10 l-25 -2 25
-8 c25 -8 25 -8 -5 -10 -30 -2 -30 -2 -5 -10 17 -5 19 -8 8 -9 -21 -1 -24 -17
-5 -24 6 -3 1 -6 -12 -6 -13 -1 -21 -4 -18 -8 4 -3 2 -12 -4 -20 -9 -11 -2
-13 40 -13 28 0 51 4 51 9 0 5 9 7 19 4 14 -3 25 4 37 24 10 15 19 30 21 32 1
2 24 -16 51 -41 60 -56 104 -72 190 -65 37 2 85 0 107 -6 49 -12 98 6 103 38
2 12 12 26 23 33 18 12 25 9 59 -22 50 -45 84 -62 145 -73 101 -18 208 14 278
82 38 37 50 34 52 -13 1 -37 40 -63 94 -62 25 0 81 -3 124 -6 70 -6 82 -4 132
21 32 15 66 42 82 63 45 62 73 78 73 44 0 -11 9 -27 20 -37 11 -10 20 -15 20
-10 0 4 6 3 13 -3 9 -8 24 -8 50 -1 37 10 47 23 25 32 -10 4 -10 6 0 6 7 1 10
5 7 11 -3 6 4 10 17 11 l23 0 -22 9 c-13 5 -23 12 -23 14 0 3 7 2 17 -1 11 -4
14 -3 9 5 -4 7 -12 12 -17 12 -6 0 -17 7 -25 15 -12 12 -12 15 -2 15 10 0 10
2 -1 9 -11 7 -10 10 5 14 17 4 17 5 -2 6 -37 2 -37 29 -1 41 l32 10 -35 -4
c-31 -4 -32 -4 -12 6 26 13 29 28 5 29 -15 0 -15 2 2 9 19 8 19 9 1 9 -20 1
-20 1 0 16 14 11 15 14 4 15 -13 0 -13 1 0 10 12 7 10 11 -10 18 -23 9 -22 9
13 16 41 8 50 25 15 27 -13 1 -5 5 17 9 l40 7 -36 2 c-70 2 -129 -11 -152 -35
-12 -13 -28 -24 -35 -24 -7 0 -57 23 -112 52 -84 44 -110 53 -165 56 -63 4
-66 3 -99 -30 -21 -21 -37 -49 -42 -72 l-7 -38 -29 60 c-35 73 -105 140 -174
165 -59 21 -153 21 -212 0z m173 -14 c87 -24 165 -93 203 -181 10 -25 9 -28
-6 -28 -11 0 -26 18 -41 51 -56 117 -203 171 -321 118 -50 -22 -114 -80 -136
-121 -8 -16 -21 -28 -30 -28 -13 0 -13 4 3 31 76 130 204 192 328 158z m36
-64 c40 -20 77 -52 91 -79 8 -14 7 -17 -2 -11 -8 5 -11 3 -8 -6 3 -8 10 -13
15 -12 6 1 15 -9 21 -21 10 -22 8 -25 -23 -30 -30 -6 -75 -45 -75 -66 0 -9 34
-42 65 -64 19 -14 18 -16 -30 -64 -94 -94 -231 -96 -316 -4 -19 20 -24 28 -11
18 12 -11 22 -14 22 -9 0 6 -7 16 -15 23 -8 7 -12 17 -8 23 3 6 1 7 -5 3 -7
-4 -12 -1 -12 6 0 9 -3 9 -10 -2 -8 -13 -10 -13 -10 2 0 9 10 20 23 23 91 28
87 135 -5 135 l-39 0 23 41 c13 23 42 54 65 70 54 38 68 38 16 0 -58 -42 -101
-101 -75 -101 5 0 14 11 20 25 6 13 36 41 66 60 45 31 62 36 109 36 62 0 108
-16 155 -55 17 -15 32 -23 32 -17 0 17 -80 70 -124 82 -23 6 -63 9 -91 6 -34
-4 -44 -3 -30 4 29 13 127 4 166 -16z m-452 -29 c30 -32 37 -96 11 -96 -32 0
-50 12 -51 34 -1 18 -2 18 -6 3 -4 -14 -11 -17 -28 -13 -25 6 -55 -1 -55 -14
0 -9 40 -16 203 -33 116 -12 136 -20 137 -53 0 -19 -29 -37 -60 -38 -17 -1
-30 -4 -30 -7 0 -3 -7 -6 -15 -6 -8 0 -15 4 -15 9 0 5 -5 6 -10 3 -17 -10
-120 6 -136 22 -7 8 -14 10 -14 5 0 -15 -30 -8 -41 9 -6 9 -9 10 -9 2 0 -7 -6
-10 -13 -7 -8 3 -14 -2 -14 -10 0 -8 5 -12 11 -9 6 4 5 0 -1 -9 -7 -8 -9 -18
-5 -23 4 -4 -3 -5 -16 -2 -12 3 -20 1 -16 -4 8 -13 -10 -11 -25 4 -10 10 -11
9 -6 -3 6 -17 -30 -26 -40 -10 -3 5 -12 7 -19 4 -8 -3 -29 2 -48 11 l-33 16
30 -25 c44 -37 104 -43 160 -16 25 12 45 26 45 31 0 5 6 9 13 9 6 0 -1 -12
-18 -27 -16 -14 -30 -31 -30 -37 0 -6 -16 -17 -35 -24 -29 -10 -30 -12 -7 -9
18 3 27 0 27 -10 0 -8 -4 -12 -8 -9 -5 3 -9 -1 -9 -9 0 -8 3 -12 7 -10 3 2 12
-5 19 -17 10 -16 10 -19 -1 -13 -7 3 -1 -3 15 -15 15 -12 25 -26 21 -31 -9
-15 -111 -11 -128 6 -8 8 -25 15 -38 16 -22 0 -22 1 -3 9 17 7 16 9 -10 10
-30 2 -30 2 -5 10 17 5 19 8 8 9 -10 1 -18 5 -18 10 0 5 -10 13 -22 17 -31 10
-51 31 -37 40 8 4 7 9 -2 15 -12 7 -12 9 0 9 11 0 11 3 1 15 -11 13 -15 13
-22 3 -5 -8 -7 18 -6 61 l3 75 35 9 c19 5 41 18 48 29 8 10 20 17 28 14 7 -3
16 0 20 6 5 7 2 8 -7 4 -8 -4 -3 2 11 13 84 70 215 94 259 47z m846 -11 c49
-3 51 -4 81 -30 16 -14 31 -25 34 -26 33 -5 46 -11 69 -33 15 -14 31 -26 37
-26 19 0 37 -45 42 -107 4 -54 2 -63 -12 -63 -9 0 -21 -11 -26 -25 -5 -14 -21
-30 -34 -35 -27 -10 -44 -30 -25 -30 24 0 -21 -37 -61 -50 -22 -7 -40 -17 -40
-22 0 -5 -28 -8 -62 -6 -37 2 -62 7 -59 13 1 6 7 9 12 7 5 -1 8 4 7 10 -2 7 3
12 10 10 6 -1 12 3 12 9 0 5 4 7 10 4 5 -3 7 0 4 8 -3 8 0 18 7 23 8 4 10 3 5
-4 -4 -7 -5 -12 -2 -12 3 0 10 9 16 19 7 14 7 22 -2 27 -7 5 -8 3 -3 -6 5 -9
4 -11 -4 -6 -21 13 9 38 38 32 14 -3 6 4 -18 15 -24 10 -41 22 -37 26 3 4 -4
18 -16 32 l-23 25 29 -22 c37 -28 98 -44 133 -36 37 9 86 34 80 41 -3 2 -14 0
-26 -6 -27 -15 -113 -23 -105 -10 3 6 0 10 -7 8 -39 -5 -50 1 -39 21 9 16 8
19 -7 14 -15 -5 -15 -3 2 11 20 17 20 17 -5 10 -22 -7 -23 -6 -11 9 7 9 9 16
3 16 -5 0 -13 -8 -16 -17 -6 -15 -8 -15 -16 -3 -7 10 -10 11 -10 3 0 -7 -6
-13 -14 -13 -8 0 -17 6 -19 13 -4 8 -6 6 -6 -4 -1 -12 -20 -19 -73 -28 -40 -7
-81 -14 -90 -16 -11 -2 -18 3 -18 13 0 14 -2 14 -9 3 -14 -22 -61 -6 -61 22 0
18 -2 19 -10 7 -8 -13 -10 -13 -10 1 0 28 25 39 108 49 44 5 107 20 141 35 34
14 66 23 71 20 6 -4 10 -1 10 6 0 8 -11 10 -35 6 -23 -4 -35 -2 -35 6 0 6 -7
1 -16 -11 -16 -23 -64 -31 -64 -11 0 24 32 77 53 87 12 6 36 9 52 5 17 -3 44
-7 60 -8z m330 -153 c9 -34 15 -77 13 -95 -3 -27 -5 -23 -16 28 -12 57 -26
111 -39 145 -5 13 -4 13 10 0 9 -8 23 -43 32 -78z m-1631 6 c-2 -40 -4 -94 -4
-120 0 -29 -5 -48 -11 -48 -13 0 -8 207 5 228 12 20 13 14 10 -60z m37 -43
l-6 -100 -13 58 c-8 31 -11 72 -7 90 21 104 34 80 26 -48z m1554 72 c18 -45
29 -129 21 -163 -10 -37 -23 -16 -31 51 -4 27 -15 69 -25 92 -18 40 -15 49 13
52 4 1 14 -14 22 -32z m-1133 -103 c38 -7 50 -16 61 -45 5 -14 -1 -16 -31 -13
-52 4 -112 35 -112 58 0 14 5 17 23 12 12 -3 39 -9 59 -12z m792 -12 c13 -22
-55 -52 -118 -52 -30 0 -37 3 -34 17 5 25 139 56 152 35z m-632 -122 c119
-120 332 -91 409 55 13 25 30 45 36 45 19 0 16 -11 -17 -63 -116 -183 -398
-178 -484 9 -33 71 -33 95 -1 33 13 -26 39 -61 57 -79z m-29 90 c3 -11 2 -18
-3 -15 -4 3 -10 14 -13 25 -3 11 -2 18 3 15 4 -3 10 -14 13 -25z m423 -29
c-17 -31 -60 -69 -111 -93 -37 -19 -108 -31 -100 -17 4 5 20 9 36 9 16 0 47 9
68 19 39 21 111 93 111 113 0 6 3 9 6 6 3 -4 -2 -20 -10 -37z m-601 6 c8 -12
15 -16 15 -9 0 8 5 10 13 5 6 -4 30 -10 52 -13 32 -4 41 -10 43 -27 2 -13 0
-23 -5 -24 -4 0 -17 -2 -28 -4 -27 -6 -57 4 -50 16 3 5 0 6 -8 3 -29 -11 -117
43 -103 64 10 17 56 10 71 -11z m863 -15 c2 -7 -15 -21 -43 -33 -36 -16 -49
-18 -60 -9 -12 10 -16 9 -21 -4 -8 -20 -33 -20 -63 0 -33 24 -13 36 58 38 41
0 62 5 66 14 6 17 57 12 63 -6z m-569 -77 c13 -4 20 -9 17 -12 -9 -10 -93 46
-111 74 -15 23 -10 20 27 -13 25 -23 55 -45 67 -49z m-287 14 c40 -19 68 -38
68 -47 0 -8 -3 -12 -6 -9 -4 3 -15 2 -25 -3 -12 -7 -20 -7 -24 0 -4 6 -10 8
-15 5 -22 -14 -92 47 -83 72 7 17 7 17 85 -18z m855 -13 c-3 -8 -18 -23 -32
-32 -22 -14 -31 -15 -46 -6 -16 10 -17 9 -12 -6 6 -14 4 -15 -9 -4 -13 10 -18
10 -24 1 -5 -8 -3 -9 6 -4 9 6 11 4 5 -5 -6 -10 -13 -8 -28 11 l-20 24 8 -25
c7 -22 6 -23 -9 -11 -9 7 -16 22 -16 32 0 15 8 19 38 20 20 0 57 8 82 19 46
18 67 13 57 -14z m-494 -23 c-7 -2 -21 -2 -30 0 -10 3 -4 5 12 5 17 0 24 -2
18 -5z"/>
<path d="M986 754 c-6 -22 -10 -25 -38 -19 -21 5 -33 3 -39 -6 -13 -21 -11
-29 10 -29 11 0 23 -5 26 -10 11 -18 -15 -150 -29 -150 -17 0 -48 -35 -39 -43
3 -4 19 -7 35 -7 25 0 28 -3 26 -27 -2 -19 2 -28 15 -31 13 -3 17 3 17 22 0
34 18 33 22 -1 4 -35 28 -43 28 -9 0 24 4 26 39 26 21 0 43 6 48 13 20 24 24
69 10 91 -13 19 -13 25 -1 41 21 28 17 43 -16 77 -19 19 -30 39 -28 51 2 14
-3 23 -14 25 -14 3 -18 -3 -18 -22 0 -14 -4 -26 -10 -26 -5 0 -10 14 -10 30 0
37 -25 41 -34 4z m68 -90 c9 -3 16 -15 16 -25 0 -15 -7 -19 -35 -19 -35 0 -40
5 -29 34 6 17 22 20 48 10z m-15 -95 c20 -7 31 -18 31 -30 0 -15 -7 -19 -39
-19 -45 0 -53 7 -44 38 6 25 9 26 52 11z"/>
<path d="M880 445 c7 -8 17 -15 22 -15 6 0 5 7 -2 15 -7 8 -17 15 -22 15 -6 0
-5 -7 2 -15z"/>
<path d="M441 751 c-8 -5 -16 -17 -17 -25 -1 -9 2 -14 7 -10 5 3 6 10 3 16 -5
7 -2 9 8 6 9 -4 15 0 15 8 0 8 -1 14 -1 14 -1 0 -7 -4 -15 -9z"/>
<path d="M1530 490 c8 -5 20 -10 25 -10 6 0 3 5 -5 10 -8 5 -19 10 -25 10 -5
0 -3 -5 5 -10z"/>
<path d="M361 896 c2 -2 27 -6 54 -10 34 -4 45 -3 35 4 -14 9 -99 15 -89 6z"/>
<path d="M1350 882 c0 -5 7 -15 15 -22 8 -7 15 -8 15 -2 0 5 -7 15 -15 22 -8
7 -15 8 -15 2z"/>
<path d="M280 870 c0 -5 19 -10 43 -9 36 1 38 2 17 9 -36 12 -60 12 -60 0z"/>
<path d="M1788 863 c7 -3 16 -2 19 1 4 3 -2 6 -13 5 -11 0 -14 -3 -6 -6z"/>
<path d="M298 833 c12 -2 32 -2 45 0 12 2 2 4 -23 4 -25 0 -35 -2 -22 -4z"/>
<path d="M1725 820 c-13 -6 -15 -9 -5 -9 8 0 22 4 30 9 18 12 2 12 -25 0z"/>
<path d="M1731 321 c-8 -5 5 -7 35 -4 27 3 51 7 53 9 9 8 -75 3 -88 -5z"/>
<path d="M263 280 c-24 -10 -43 -21 -43 -24 0 -3 19 3 43 13 23 10 49 21 57
24 13 5 13 5 0 6 -8 0 -34 -8 -57 -19z"/>
<path d="M659 252 c-40 -32 -75 -79 -66 -88 2 -2 32 26 67 61 71 72 70 85 -1
27z"/>
<path d="M1723 283 c20 -2 54 -2 75 0 20 2 3 4 -38 4 -41 0 -58 -2 -37 -4z"/>
<path d="M1170 270 c-9 -6 -10 -10 -3 -10 6 0 15 5 18 10 8 12 4 12 -15 0z"/>
<path d="M1323 273 c9 -14 112 -93 122 -93 5 0 -2 12 -16 27 -13 14 -17 22 -9
18 13 -8 13 -7 1 9 -8 9 -20 15 -27 12 -7 -3 -16 0 -20 6 -5 7 -2 8 7 3 8 -5
10 -4 6 0 -4 5 -13 10 -20 11 -7 1 -21 6 -31 10 -12 5 -17 4 -13 -3z"/>
<path d="M405 254 c-46 -17 -75 -41 -35 -29 41 12 90 34 90 39 0 8 -10 6 -55
-10z"/>
<path d="M1270 249 c-22 -18 -22 -19 -3 -10 12 6 25 16 28 21 9 15 3 12 -25
-11z"/>
<path d="M528 244 c-38 -20 -36 -28 2 -9 17 9 30 18 30 20 0 7 -1 6 -32 -11z"/>
<path d="M790 242 c46 -38 124 -55 219 -49 72 4 190 32 179 42 -2 2 -34 -5
-73 -15 -38 -11 -86 -19 -105 -19 -30 -1 -166 32 -225 53 -16 6 -15 4 5 -12z"/>
<path d="M888 253 c7 -3 16 -2 19 1 4 3 -2 6 -13 5 -11 0 -14 -3 -6 -6z"/>
<path d="M280 240 c-8 -5 -10 -10 -5 -10 6 0 17 5 25 10 8 5 11 10 5 10 -5 0
-17 -5 -25 -10z"/>
<path d="M928 243 c6 -2 18 -2 25 0 6 3 1 5 -13 5 -14 0 -19 -2 -12 -5z"/>
<path d="M1650 241 c8 -5 42 -12 75 -15 l60 -5 -60 14 c-72 17 -98 19 -75 6z"/>
<path d="M1280 219 c-17 -13 -18 -17 -5 -10 33 17 51 31 40 31 -5 0 -21 -10
-35 -21z"/>
<path d="M1530 205 c0 -9 71 -37 78 -31 3 3 3 6 0 6 -3 0 -22 7 -42 15 -20 8
-36 13 -36 10z"/>
<path d="M205 131 c-98 -6 -99 -6 -50 -16 28 -5 76 -9 107 -10 32 0 58 -2 58
-5 0 -3 102 -6 228 -6 140 -1 208 1 177 6 -37 6 -17 8 74 6 89 -1 126 -5 129
-14 2 -8 30 -12 90 -12 60 0 82 3 72 10 -11 7 -5 10 25 11 l40 2 -45 7 c-35 5
-22 7 57 8 113 2 168 -9 93 -19 -25 -3 109 -5 297 -4 189 1 346 5 350 8 3 4 0
7 -8 8 -8 0 -6 4 6 9 12 6 -206 9 -558 7 -318 -1 -568 1 -555 5 28 7 -445 6
-587 -1z"/>
</g>
</svg>
